<svg width="19" height="20" viewBox="0 0 19 20" fill="none" xmlns="http://www.w3.org/2000/svg">
<path d="M9.5 10C10.5438 10 11.5642 9.70675 12.4322 9.15735C13.3001 8.60794 13.9766 7.82705 14.376 6.91342C14.7755 5.99979 14.88 4.99445 14.6764 4.02455C14.4727 3.05464 13.9701 2.16373 13.232 1.46447C12.4938 0.765206 11.5534 0.289002 10.5296 0.0960758C9.50585 -0.0968502 8.44467 0.00216642 7.48028 0.380604C6.51589 0.759043 5.69162 1.3999 5.11169 2.22215C4.53176 3.0444 4.22222 4.01109 4.22222 5C4.22362 6.32568 4.78012 7.59668 5.76959 8.53407C6.75906 9.47147 8.10067 9.99868 9.5 10ZM9.5 1.66667C10.1959 1.66667 10.8762 1.86216 11.4548 2.22844C12.0334 2.59471 12.4844 3.1153 12.7507 3.72439C13.017 4.33348 13.0867 5.0037 12.9509 5.6503C12.8151 6.2969 12.48 6.89085 11.988 7.35702C11.4959 7.8232 10.869 8.14067 10.1864 8.26928C9.5039 8.3979 8.79645 8.33189 8.15352 8.0796C7.5106 7.82731 6.96108 7.40006 6.57446 6.8519C6.18784 6.30374 5.98148 5.65927 5.98148 5C5.98148 4.11595 6.35218 3.2681 7.01203 2.64298C7.67188 2.01786 8.56683 1.66667 9.5 1.66667Z" fill="black"/>
<path d="M9.5 12C6.9813 12.0021 4.56656 12.7614 2.78557 14.1112C1.00458 15.461 0.0027939 17.2911 0 19.2C0 19.4122 0.11121 19.6157 0.309165 19.7657C0.50712 19.9157 0.775605 20 1.05556 20C1.33551 20 1.60399 19.9157 1.80195 19.7657C1.9999 19.6157 2.11111 19.4122 2.11111 19.2C2.11111 17.7148 2.88958 16.2904 4.27527 15.2402C5.66095 14.19 7.54035 13.6 9.5 13.6C11.4597 13.6 13.339 14.19 14.7247 15.2402C16.1104 16.2904 16.8889 17.7148 16.8889 19.2C16.8889 19.4122 17.0001 19.6157 17.1981 19.7657C17.396 19.9157 17.6645 20 17.9444 20C18.2244 20 18.4929 19.9157 18.6908 19.7657C18.8888 19.6157 19 19.4122 19 19.2C18.9972 17.2911 17.9954 15.461 16.2144 14.1112C14.4334 12.7614 12.0187 12.0021 9.5 12Z" fill="black"/>
</svg>
